<svg xmlns="http://www.w3.org/2000/svg" viewBox="0 0 316 316" width="28"><g fill="none" fill-rule="evenodd"><path d="M0 0h316v316H0z" 
fill="#000" fill-rule="nonzero"></path><path d="M9 9h298v298H9z" fill="#fff200"></path><path d="m24.5 246.4 39 39.7 91.2-92.5 94.2 94.4 
39.5-39.1-93.3-93.3 18-17.3v-37l11.2-9.6v29l14.5 11.9 43.3-43.3 14 10.6c8.2-30.3-39.3-99.1-78.6-61l-45.9 45.4 9.4 11.2-23.3 22.7-22.5-22L147 
85.3 97 37C59 5.9 20.3 53.2 19 99.4l13.7-11.5L75 133.3l15-12.6V93l9.4 7v36.5l18.3 18.3z" fill="#000" fill-rule="nonzero"></path></g></svg>
